<svg width="20" height="20" viewBox="0 0 20 20" fill="none" xmlns="http://www.w3.org/2000/svg">
<path fill-rule="evenodd" clip-rule="evenodd" d="M9.48127 4.90518C8.05687 3.42072 5.65809 3.3995 4.10192 4.91989C4.09699 4.92471 4.09198 4.92945 4.0869 4.9341C2.57711 6.31698 2.5548 8.63142 4.10192 10.143L4.10598 10.1469L9.94718 15.9557L15.8968 10.143C15.9017 10.1382 15.9067 10.1334 15.9118 10.1287C17.4216 8.74583 17.4439 6.43143 15.8968 4.91989C14.3489 3.40766 11.9384 3.40766 10.3905 4.91989C10.2683 5.03935 10.1035 5.10497 9.93285 5.1022C9.76218 5.09944 9.59968 5.02853 9.48127 4.90518ZM9.95477 3.59844C7.99492 2.00322 5.10178 2.15501 3.21467 3.99177C1.13937 5.90041 1.1634 9.06483 3.2052 11.0618L3.20728 11.0639L9.49185 17.3136C9.74018 17.5606 10.14 17.5623 10.3905 17.3176L16.7843 11.0709C18.86 9.16158 18.8352 5.99576 16.7914 3.99897C14.893 2.14421 11.9969 2.0107 9.95477 3.59844Z" fill="#FF0000"/>
</svg>
