<svg width="63" height="66" viewBox="0 0 63 66" fill="none" xmlns="http://www.w3.org/2000/svg">
<g filter="url(#filter0_d_131_35)">
<path d="M31.5 7.87501L32.7842 5.58561C31.9867 5.13813 31.0133 5.13813 30.2159 5.58561L31.5 7.87501ZM35.1687 9.93301L33.8846 12.2224C34.2673 12.437 34.6975 12.5524 35.1362 12.5578L35.1687 9.93301ZM39.375 9.98511L41.632 8.64455C41.1647 7.85818 40.3221 7.37164 39.4076 7.3603L39.375 9.98511ZM41.5233 13.6018L39.2663 14.9423C39.4905 15.3195 39.8055 15.6346 40.1827 15.8587L41.5233 13.6018ZM45.14 15.75L47.7648 15.7175C47.7535 14.8029 47.2668 13.9602 46.4804 13.4931L45.14 15.75ZM45.192 19.9563L42.5673 19.9887C42.5725 20.4275 42.688 20.8578 42.9025 21.2405L45.192 19.9563ZM47.25 23.625L49.5395 24.9093C49.9868 24.1115 49.9868 23.1385 49.5395 22.3407L47.25 23.625ZM45.192 27.2937L42.9025 26.0095C42.688 26.3923 42.5725 26.8225 42.5673 27.2612L45.192 27.2937ZM45.14 31.5L46.4804 33.757C47.2668 33.2897 47.7535 32.4471 47.7648 31.5326L45.14 31.5ZM41.5233 33.6483L40.1827 31.3913C39.8055 31.6155 39.4905 31.9305 39.2663 32.3077L41.5233 33.6483ZM39.375 37.265L39.4076 39.8898C40.3221 39.8785 41.1647 39.3918 41.632 38.6054L39.375 37.265ZM35.1687 37.317L35.1362 34.6923C34.6975 34.6975 34.2673 34.813 33.8846 35.0275L35.1687 37.317ZM31.5 39.375L30.2159 41.6645C31.0133 42.1118 31.9867 42.1118 32.7842 41.6645L31.5 39.375ZM27.8313 37.317L29.1155 35.0275C28.7327 34.813 28.3025 34.6975 27.8639 34.6923L27.8313 37.317ZM23.625 37.265L21.3681 38.6054C21.8352 39.3918 22.6779 39.8785 23.5925 39.8898L23.625 37.265ZM21.4768 33.6483L23.7337 32.3077C23.5096 31.9305 23.1946 31.6155 22.8173 31.3913L21.4768 33.6483ZM17.8601 31.5L15.2353 31.5326C15.2466 32.4471 15.7332 33.2897 16.5196 33.757L17.8601 31.5ZM17.808 27.2937L20.4328 27.2612C20.4274 26.8225 20.312 26.3923 20.0974 26.0095L17.808 27.2937ZM15.75 23.625L13.4606 22.3407C13.0131 23.1385 13.0131 24.1115 13.4606 24.9093L15.75 23.625ZM17.808 19.9563L20.0974 21.2405C20.312 20.8578 20.4274 20.4275 20.4328 19.9887L17.808 19.9563ZM17.8601 15.75L16.5196 13.4931C15.7332 13.9602 15.2466 14.8029 15.2353 15.7175L17.8601 15.75ZM21.4768 13.6018L22.8173 15.8587C23.1946 15.6346 23.5096 15.3196 23.7337 14.9423L21.4768 13.6018ZM23.625 9.98511L23.5925 7.3603C22.6779 7.37164 21.8352 7.85818 21.3681 8.64455L23.625 9.98511ZM27.8313 9.93301L27.8639 12.5578C28.3025 12.5524 28.7327 12.437 29.1155 12.2224L27.8313 9.93301ZM22.3125 55.125H19.6875C19.6875 56.0608 20.1856 56.9258 20.9949 57.3954C21.8043 57.865 22.8024 57.8684 23.6149 57.404L22.3125 55.125ZM31.5 49.875L32.8023 47.596C31.9953 47.1348 31.0047 47.1348 30.1977 47.596L31.5 49.875ZM40.6875 55.125L39.3852 57.404C40.1977 57.8684 41.1957 57.865 42.005 57.3954C42.8143 56.9258 43.3125 56.0608 43.3125 55.125H40.6875ZM30.2159 10.1644L33.8846 12.2224L36.4531 7.64361L32.7842 5.58561L30.2159 10.1644ZM35.1362 12.5578L39.3425 12.6099L39.4076 7.3603L35.2013 7.30822L35.1362 12.5578ZM37.118 11.3257L39.2663 14.9423L43.78 12.2612L41.632 8.64455L37.118 11.3257ZM40.1827 15.8587L43.7994 18.0069L46.4804 13.4931L42.8639 11.3449L40.1827 15.8587ZM42.515 15.7825L42.5673 19.9887L47.8167 19.9237L47.7648 15.7175L42.515 15.7825ZM42.9025 21.2405L44.9605 24.9093L49.5395 22.3407L47.4815 18.672L42.9025 21.2405ZM44.9605 22.3407L42.9025 26.0095L47.4815 28.5781L49.5395 24.9093L44.9605 22.3407ZM42.5673 27.2612L42.515 31.4675L47.7648 31.5326L47.8167 27.3263L42.5673 27.2612ZM39.3425 34.64L35.1362 34.6923L35.2013 39.9417L39.4076 39.8898L39.3425 34.64ZM27.8639 34.6923L23.6575 34.64L23.5925 39.8898L27.7988 39.9417L27.8639 34.6923ZM20.4849 31.4675L20.4328 27.2612L15.1832 27.3263L15.2353 31.5326L20.4849 31.4675ZM20.0974 26.0095L18.0394 22.3407L13.4606 24.9093L15.5186 28.5781L20.0974 26.0095ZM18.0394 24.9093L20.0974 21.2405L15.5186 18.672L13.4606 22.3407L18.0394 24.9093ZM20.4328 19.9887L20.4849 15.7825L15.2353 15.7175L15.1832 19.9237L20.4328 19.9887ZM19.2007 18.0069L22.8173 15.8587L20.1362 11.3449L16.5196 13.4931L19.2007 18.0069ZM23.7337 14.9423L25.8819 11.3257L21.3681 8.64455L19.2199 12.2612L23.7337 14.9423ZM23.6575 12.6099L27.8639 12.5578L27.7988 7.30822L23.5925 7.3603L23.6575 12.6099ZM29.1155 12.2224L32.7842 10.1644L30.2159 5.58561L26.5469 7.64361L29.1155 12.2224ZM43.7994 29.243L40.1827 31.3913L42.8639 35.905L46.4804 33.757L43.7994 29.243ZM22.8173 31.3913L19.2007 29.243L16.5196 33.757L20.1362 35.905L22.8173 31.3913ZM33.8846 35.0275L30.2159 37.0855L32.7842 41.6645L36.4531 39.6065L33.8846 35.0275ZM32.7842 37.0855L29.1155 35.0275L26.5469 39.6065L30.2159 41.6645L32.7842 37.0855ZM23.6149 57.404L32.8023 52.154L30.1977 47.596L21.0101 52.846L23.6149 57.404ZM30.1977 52.154L39.3852 57.404L41.9898 52.846L32.8023 47.596L30.1977 52.154ZM43.3125 55.125V35.0553H38.0625V55.125H43.3125ZM39.2663 32.3077L38.4305 33.7147L42.9445 36.3959L43.78 34.9889L39.2663 32.3077ZM38.4305 33.7147L37.118 35.9244L41.632 38.6054L42.9445 36.3959L38.4305 33.7147ZM19.6875 35.0553V55.125H24.9375V35.0553H19.6875ZM25.8819 35.9244L24.5694 33.7147L20.0556 36.3959L21.3681 38.6054L25.8819 35.9244ZM24.5694 33.7147L23.7337 32.3077L19.2199 34.9889L20.0556 36.3959L24.5694 33.7147ZM34.125 23.625C34.125 25.0747 32.9498 26.25 31.5 26.25V31.5C35.8494 31.5 39.375 27.9744 39.375 23.625H34.125ZM31.5 26.25C30.0502 26.25 28.875 25.0747 28.875 23.625H23.625C23.625 27.9744 27.1506 31.5 31.5 31.5V26.25ZM28.875 23.625C28.875 22.1753 30.0502 21 31.5 21V15.75C27.1506 15.75 23.625 19.2758 23.625 23.625H28.875ZM31.5 21C32.9498 21 34.125 22.1753 34.125 23.625H39.375C39.375 19.2758 35.8494 15.75 31.5 15.75V21Z" fill="#AB9887"/>
</g>
<defs>
<filter id="filter0_d_131_35" x="-4" y="0" width="71" height="71" filterUnits="userSpaceOnUse" color-interpolation-filters="sRGB">
<feFlood flood-opacity="0" result="BackgroundImageFix"/>
<feColorMatrix in="SourceAlpha" type="matrix" values="0 0 0 0 0 0 0 0 0 0 0 0 0 0 0 0 0 0 127 0" result="hardAlpha"/>
<feOffset dy="4"/>
<feGaussianBlur stdDeviation="2"/>
<feComposite in2="hardAlpha" operator="out"/>
<feColorMatrix type="matrix" values="0 0 0 0 0 0 0 0 0 0 0 0 0 0 0 0 0 0 0.25 0"/>
<feBlend mode="normal" in2="BackgroundImageFix" result="effect1_dropShadow_131_35"/>
<feBlend mode="normal" in="SourceGraphic" in2="effect1_dropShadow_131_35" result="shape"/>
</filter>
</defs>
</svg>
